<?xml version="1.0" ?>
<svg enable-background="new 0 0 100 100" height="100px" id="Calque_1" version="1.1" viewBox="0 0 100 100" width="100px" xml:space="preserve" xmlns="http://www.w3.org/2000/svg" xmlns:xlink="http://www.w3.org/1999/xlink">
    <g>
        <path fill="currentColor" d="M91.81,49.12l-2.18-12.34c-0.1-0.61-0.6-1.08-1.22-1.15l-11.13-1.25l4.479-10.26   c0.25-0.57,0.101-1.24-0.38-1.64l-9.6-8.05c-0.48-0.4-1.16-0.44-1.681-0.1l-9.33,6.21L57.61,9.79c-0.17-0.6-0.721-1.01-1.341-1.01   H43.73c-0.62,0-1.17,0.41-1.34,1.01l-3.16,10.75l-9.33-6.2c-0.52-0.35-1.21-0.31-1.68,0.09l-9.6,8.05   c-0.48,0.41-0.63,1.07-0.39,1.64l4.49,10.26l-11.13,1.25c-0.62,0.07-1.12,0.54-1.22,1.15L8.19,49.12c-0.11,0.61,0.2,1.23,0.76,1.5   L18.98,55.6l-7.72,8.11c-0.43,0.45-0.51,1.13-0.2,1.67l6.26,10.86c0.26,0.439,0.73,0.7,1.22,0.7c0.11,0,0.22-0.011,0.33-0.04   l10.88-2.641l-0.7,11.181c-0.04,0.619,0.33,1.189,0.92,1.409l11.78,4.28c0.15,0.061,0.31,0.09,0.48,0.09   c0.43,0,0.85-0.21,1.12-0.569L50,81.63l6.64,9.021c0.28,0.359,0.7,0.569,1.141,0.569c0.149,0,0.319-0.029,0.47-0.09l11.78-4.28   c0.59-0.22,0.96-0.79,0.92-1.409l-0.7-11.181L81.13,76.9c0.11,0.029,0.22,0.04,0.33,0.04c0.49,0,0.96-0.261,1.21-0.7l6.271-10.86   c0.31-0.54,0.229-1.22-0.2-1.67L81.02,55.6l10.03-4.97C91.61,50.35,91.92,49.74,91.81,49.12z M50,72.61   C37.53,72.61,27.39,62.47,27.39,50c0-12.47,10.14-22.61,22.61-22.61c12.47,0,22.61,10.14,22.61,22.61   C72.61,62.47,62.47,72.61,50,72.61z"/>
        <path fill="currentColor" d="M67.497,49.008l-8.951-8.951c-0.548-0.548-1.437-0.548-1.983,0c-0.549,0.548-0.549,1.437,0,1.984L64.52,50   l-7.957,7.958c-0.549,0.548-0.549,1.437,0,1.983c0.273,0.273,0.633,0.41,0.992,0.41c0.357,0,0.717-0.137,0.991-0.41l8.951-8.949   c0.263-0.264,0.41-0.62,0.41-0.992S67.76,49.271,67.497,49.008z"/>
        <path fill="currentColor" d="M43.44,40.057c-0.548-0.548-1.437-0.548-1.985,0l-8.95,8.951c-0.263,0.263-0.411,0.62-0.411,0.992   s0.148,0.729,0.411,0.992l8.951,8.949c0.274,0.273,0.633,0.41,0.991,0.41c0.36,0,0.719-0.137,0.993-0.41   c0.548-0.549,0.548-1.437,0-1.983L35.481,50l7.959-7.958C43.988,41.493,43.988,40.605,43.44,40.057z"/>
        <path fill="currentColor" d="M54.898,36.793c-0.727-0.269-1.535,0.102-1.805,0.828l-8.821,23.781c-0.27,0.727,0.101,1.533,0.828,1.804   c0.161,0.062,0.326,0.088,0.488,0.088c0.57,0,1.106-0.351,1.315-0.915l8.823-23.782C55.996,37.871,55.624,37.063,54.898,36.793z"/>
    </g>
</svg>