<svg version="1.0" xmlns="http://www.w3.org/2000/svg" width="540" height="540" viewBox="0 0 540 540" preserveAspectRatio="xMidYMid meet">
	<g transform="translate(0,540) scale(0.100000,-0.100000)" fill="currentColor" stroke="none">
		<path d="M2004 5205 c-81 -18 -137 -47 -199 -106 -84 -79 -96 -115 -193 -545 l-88 -389 -349 -5 c-387 -6 -394 -7 -498 -78 -188 -130 -228 -391 -88 -577 44 -58 121 -113 196 -140 41 -15 93 -19 303 -23 228 -4 252 -6 248 -21 -3 -9 -69 -299 -146 -646 -78 -346 -145 -633 -148 -637 -4 -4 -165 -9 -357 -10 -340 -3 -352 -4 -408 -26 -81 -33 -168 -116 -210 -201 -30 -62 -32 -73 -32 -171 0 -97 2 -110 32 -172 36 -76 108 -155 171 -187 85 -43 143 -51 389 -51 128 0 233 -3 233 -7 0 -5 -30 -138 -66 -298 -79 -351 -81 -396 -21 -518 125 -253 455 -304 653 -100 72 74 88 120 181 536 l87 387 647 0 646 0 -69 -302 c-37 -167 -68 -321 -68 -343 -1 -178 131 -346 307 -392 165 -43 350 30 441 175 40 64 43 74 137 491 l82 366 379 5 c409 6 409 6 509 65 121 70 210 249 190 379 -24 155 -101 263 -235 329 l-65 32 -298 3 c-274 3 -298 4 -293 20 2 9 69 304 147 655 l143 637 331 0 c351 0 429 7 513 45 74 34 156 115 195 194 30 61 32 72 32 171 0 97 -2 110 -31 171 -56 118 -168 204 -298 228 -33 6 -171 11 -309 11 l-249 0 5 23 c3 12 34 146 67 297 55 242 62 285 58 355 -18 346 -440 504 -686 258 -29 -29 -64 -76 -77 -105 -18 -41 -195 -783 -195 -820 0 -5 -290 -8 -645 -8 -459 0 -645 3 -645 11 0 6 29 142 65 303 36 160 65 315 65 344 0 64 -31 161 -70 217 -95 138 -258 205 -416 170z m1456 -1871 c0 -5 -273 -1227 -287 -1281 l-5 -23 -644 0 c-354 0 -644 4 -644 8 0 7 258 1164 285 1280 l5 22 645 0 c355 0 645 -3 645 -6z"/>
	</g>
</svg>