<svg class="icon-vimeo" xmlns="http://www.w3.org/2000/svg" x="0px" y="0px" viewBox="0 0 20.9 18.3" style="enable-background:new 0 0 20.9 18.3;" xml:space="preserve">
	<path style="fill:currentColor;fill-rule:evenodd;clip-rule:evenodd;" d="M0,5.1l1,1.4c1.6-0.9,2.2-1.9,2.9,0.2c0.8,2,2,7.2,2.8,9.3c0.8,2.1,2.6,3,4.8,1.6c1-0.6,3.1-2.1,4.9-4.5
		c2.3-2.9,4.4-6.9,4.4-8.7c0-3.2-1.6-4.4-3.6-4.4c-2,0-4.1,1.8-5.3,5.3c1.4-0.9,2.9-1,2.9,1.3c0,2-2,4-2.6,4.7
		c-0.6,0.8-1.3,0.6-1.6-0.1C10.3,10.3,8.8,3.2,8.5,2C8.1,0.9,6.5-0.3,5,0.9C3.6,2,1.3,4.1,0,5.1z"/>
</svg>
