<svg class="icont-phone" xmlns="http://www.w3.org/2000/svg" x="0px" y="0px" viewBox="0 0 20 30.8" style="enable-background:new 0 0 20 30.8;" xml:space="preserve">
	<g>
		<g>
			<path style="fill:currentColor;" d="M16,30.8H4c-2.2,0-4-1.8-4-4V4c0-2.2,1.8-4,4-4H16c2.2,0,4,1.8,4,4v22.7C20,29,18.2,30.8,16,30.8z M4,1.6
				C2.7,1.6,1.6,2.7,1.6,4v22.7c0,1.3,1.1,2.4,2.4,2.4H16c1.3,0,2.4-1.1,2.4-2.4V4c0-1.3-1.1-2.4-2.4-2.4H4z"/>
		</g>
		<path style="fill:currentColor;" d="M12.4,5.6H7.6c-0.4,0-0.8-0.4-0.8-0.8v0C6.8,4.3,7.1,4,7.6,4h4.9c0.4,0,0.8,0.4,0.8,0.8v0
			C13.2,5.2,12.9,5.6,12.4,5.6z"/>
		<circle style="fill:currentColor;" cx="10" cy="25.8" r="1.5"/>
	</g>
</svg>