<svg class="icon-linkedin" xmlns="http://www.w3.org/2000/svg" x="0px" y="0px" viewBox="0 0 40 37.78" style="enable-background:new 0 0 40 37.78;" xml:space="preserve">
	<path style="fill:currentColor;fill-rule:evenodd;clip-rule:evenodd;" d="M40,37.51c0,0.08,0,0.17,0,0.26c-2.85,0-5.7,0-8.57,0c0-0.08,0-0.16,0-0.24c0-4.51,0.01-9.02,0-13.53
		c0-1.04-0.12-2.08-0.49-3.07c-0.58-1.53-1.69-2.38-3.35-2.51c-1.02-0.08-2,0.04-2.86,0.62c-1.24,0.83-2.06,1.96-2.26,3.46
		c-0.05,0.34-0.07,0.68-0.07,1.03c0,4.66,0,9.33,0,13.99c0,0.08,0,0.16,0,0.26c-2.85,0-5.7,0-8.57,0c0.02-8.5,0.15-16.98,0.01-25.47
		c2.84,0,5.68,0,8.55,0c0,1.18,0,2.36,0,3.6c0.21-0.28,0.37-0.52,0.55-0.75c1-1.29,2.23-2.28,3.77-2.87c1.13-0.44,2.31-0.61,3.53-0.6
		c1.46,0.01,2.88,0.25,4.21,0.86c1.81,0.83,3.18,2.13,4.12,3.87c0.67,1.24,1.03,2.56,1.23,3.94c0.15,1.01,0.19,2.02,0.19,3.04
		C40,28.09,40,32.8,40,37.51z M5.9,8.73C4.92,8.89,3.94,8.89,2.99,8.55c-1.7-0.6-2.7-1.78-2.95-3.56C0.03,4.95,0.01,4.92,0,4.89
		c0-0.33,0-0.66,0-0.99c0.03-0.17,0.06-0.33,0.1-0.5c0.44-1.75,1.6-2.78,3.32-3.24C3.7,0.08,4,0.05,4.29,0c0.39,0,0.77,0,1.16,0
		c0.27,0.05,0.54,0.09,0.81,0.15C7.94,0.58,9.08,1.58,9.5,3.27C9.88,4.79,9.64,6.21,8.51,7.4C7.8,8.14,6.91,8.57,5.9,8.73z
		 M9.06,37.78c-2.85,0-5.69,0-8.54,0c0-8.49,0-16.97,0-25.48c2.85,0,5.69,0,8.54,0C9.06,20.79,9.06,29.28,9.06,37.78z"/>
</svg>
