<svg class="icon-pinterest" xmlns="http://www.w3.org/2000/svg" viewBox="0 0 54.48 70.15">
	<path style="fill:currentColor;" d="M10.81,37.26a2.41,2.41,0,0,0-.36-2.89c-1.3-1.37-2.76-4-2.67-8.72C8,15.06,16.63,7.06,27.67,7,38.41,6.92,45,13.33,44.89,23.2c-.06,8.87-3.92,20.7-12.82,21-6.92.22-6.92-6.55-6.92-6.55-.22-2.55,4.11-12.47,4-15.86-.11-2.6-1.88-6.05-5.47-6.12-4.81-.1-8.22,5.89-8.07,9.79s1.29,6.57,1.72,7l-5.54,23.2a26.34,26.34,0,0,0-.65,5.48c0,2.81.5,8.43.5,8.43s.36,1.37,1.44,0,4.69-7.21,4.69-7.21a79.49,79.49,0,0,0,2.95-8.86c.58-2.81,1.95-7.64,1.95-7.64A14,14,0,0,0,32.5,51c13.62.63,22-13.62,22-26.45C54.48,12.11,46.19,0,29.33,0,12.25,0,0,11,0,25.08,0,39.6,7.71,40.57,7.71,40.57s2.16.72,2.38-.58A18.61,18.61,0,0,1,10.81,37.26Z" />
</svg>