<svg class="icon-periscope" xmlns="http://www.w3.org/2000/svg" x="0px" y="0px" viewBox="0 0 19 24" style="enable-background:new 0 0 19 24;" xml:space="preserve">
	<path style="fill:currentColor;fill-rule:evenodd;clip-rule:evenodd;" d="M9.6,0L9.6,0C9.5,0,9.5,0,9.6,0C9.5,0,9.5,0,9.4,0v0C5.5,0.1-0.1,3.5,0,9.7C0.1,16,6.7,22.6,8.4,23.6
		c0.3,0.2,0.4,0.4,1,0.4v0c0,0,0,0,0.1,0c0,0,0,0,0.1,0v0c0.6,0,0.7-0.2,1-0.4c1.7-1,8.4-7.6,8.4-13.9C19.1,3.5,13.5,0.1,9.6,0z
		M9.5,15.4c-3.2,0-5.7-2.6-5.7-5.8c0-1.2,0.3-2.2,0.9-3.2c0.2,1,1.1,1.8,2.2,1.8c1.3,0,2.3-1,2.3-2.3c0-0.8-0.4-1.6-1.1-2
		C8.5,4,9,3.9,9.5,3.9c3.2,0,5.7,2.6,5.7,5.8S12.7,15.4,9.5,15.4z"/>
</svg>
