<svg class="icon-soundcloud" xmlns="http://www.w3.org/2000/svg" x="0px" y="0px" viewBox="0 0 273 120.2" style="enable-background:new 0 0 273 120.2;" xml:space="preserve">
	<g style="fill:currentColor;">
		<path d="M224.1,54.2c4.5-0.7,8.7-1.8,13-2c20.4-0.6,36.7,15.9,35.8,36c-0.7,16.6-15.1,30.8-32.4,31.9c-1.8,0.1-3.6,0.1-5.4,0.1
			c-30.9,0-61.8,0-92.7,0c-4.9,0-6.1-1.2-6.1-6.1c0-34.8,0-69.5,0-104.3c0-4,0.5-4.8,4.3-6c23.2-7.5,44.6-4,63.3,11.9
			c11.2,9.5,17.8,21.9,19.9,36.5C223.9,52.9,224,53.6,224.1,54.2z"/>
		<path d="M109.6,68c0.5-18.3,0.8-33.5,1.2-48.6c0.1-3.1,1.7-4.6,4.8-4.7c3.2-0.1,5,1.5,5.1,4.6c0.7,22.9,1.6,45.8,1.8,68.7
			c0.1,9.4-1.1,18.7-1.8,28.1c-0.2,2.7-2.2,4.2-5.2,4c-2.9-0.1-4.5-1.6-4.7-4.4C109.7,98.8,108.3,81.8,109.6,68z"/>
		<path d="M94.2,59.6c0.3,7,1,14,0.8,21c-0.2,9.5-0.9,19-1.5,28.6c-0.1,2.4-0.4,4.8-0.7,7.1c-0.3,2.6-1.9,3.8-4.7,3.7
			c-2.7-0.1-4-1.3-4.2-3.9c-0.7-8-1.7-15.9-1.9-23.9c-0.2-9.8,0.3-19.5,0.6-29.3c0.4-11.5,0.9-23,1.3-34.4c0.1-2.9,1.4-4.3,4.2-4.4
			c2.9-0.1,4.5,1.3,4.6,4.2C93.3,38.7,93.8,49.1,94.2,59.6C94.2,59.6,94.2,59.6,94.2,59.6z"/>
		<path d="M66.6,59.2c0.3,6.5,0.4,13,1,19.4c0.9,8.9-0.5,17.6-1.3,26.3c-0.4,3.9-0.8,7.7-1.3,11.6c-0.3,2.4-1.5,3.4-3.9,3.4
			c-2.4,0-3.7-1-3.9-3.3c-0.9-9.4-2.1-18.8-2.6-28.3C54.2,82.2,55,76.1,55.3,70c0.6-13.7,1.3-27.4,1.9-41.1c0.1-2.6,1.2-3.7,3.6-3.9
			c2.5-0.1,3.9,1.1,4.1,3.6C65.5,38.8,66,49,66.6,59.2C66.6,59.2,66.6,59.2,66.6,59.2z"/>
		<path d="M27.1,88.3c1.1-15.3,2.2-29.9,3.3-44.6c0.2-2.3,1.3-3.2,3.5-3.1c2,0.1,3.1,1.1,3.2,3.2c1.2,14.6,2.5,29.1,3.5,43.7
			c0.2,3.1-0.6,6.4-1,9.5c-0.8,6.7-1.8,13.3-2.6,20c-0.2,2-1.4,2.9-3.3,2.9c-1.8,0-3.2-0.6-3.5-2.7c-1.1-9.6-2.2-19.1-3.2-28.7
			C27.1,88.3,27.1,88,27.1,88.3z"/>
		<path d="M6.4,108.2c-1.8,0.1-2.7-0.6-3-2.5c-1-5.5-2.4-10.9-3.3-16.4c-0.3-2.1,0.4-4.4,0.8-6.6c0.8-4.3,1.8-8.6,2.5-12.9
			c0.3-1.8,1.3-2.3,2.9-2.4c1.6,0,2.6,0.5,3,2.3c1.2,5.6,2.6,11.2,3.8,16.8c0.2,1.1,0.2,2.2,0,3.3c-1.2,5.4-2.6,10.7-3.7,16.1
			C8.9,107.7,8,108.3,6.4,108.2z"/>
	</g>
</svg>
