<svg class="icon-facebook" xmlns="http://www.w3.org/2000/svg" x="0px" y="0px" viewBox="0 0 21.3 21.2" style="enable-background:new 0 0 21.3 21.2;" xml:space="preserve">
	<path style="fill:currentColor;fill-rule:evenodd;clip-rule:evenodd;" d="M19.2,0h-17C1,0,0,0.9,0,2.1v16.9c0,1.2,1,2.1,2.1,2.1h8.1V13H8.3V9.8h1.9c0,0,0-2.1,0-2.6c0-0.5-0.1-3.7,4-3.7
		c0.5,0,1.8,0,2.9,0c0,1.4,0,2.9,0,3.3c-0.8,0-1.7,0-2.1,0c-0.4,0-0.8,0.4-0.8,0.8c0,0.3,0,2.2,0,2.2s2.6,0,3,0
		C17,11.4,16.8,13,16.8,13h-2.6v8.2h5c1.2,0,2.1-0.9,2.1-2.1V2.1C21.3,0.9,20.3,0,19.2,0z"/>
</svg>
