<svg class="icon-at" xmlns="http://www.w3.org/2000/svg" x="0px" y="0px" viewBox="0 0 20 20" style="enable-background:new 0 0 20 20;" xml:space="preserve">
	<path style="fill:currentColor;" d="M19.6,12.8c0.3-0.9,0.4-1.8,0.4-2.8c0-5.5-4.5-10-10-10S0,4.5,0,10s4.5,10,10,10c1.1,0,2.3-0.2,3.3-0.6
		c0.4-0.1,0.6-0.6,0.5-1c-0.1-0.4-0.6-0.6-1-0.5c-0.9,0.3-1.9,0.5-2.8,0.5c-4.7,0-8.5-3.8-8.5-8.5c0-4.7,3.8-8.5,8.5-8.5
		s8.5,3.8,8.5,8.5c0,1-0.1,1.9-0.5,2.8c-0.2,0.6-0.8,0.8-1.4,0.8c-0.7-0.1-1.5-0.7-1.5-2.2l0-5.1c0-0.4-0.3-0.8-0.8-0.8c0,0,0,0,0,0
		c-0.4,0-0.8,0.3-0.8,0.8l0,0.1c-0.9-0.9-2.2-1.5-3.6-1.5c-2.8,0-5.1,2.3-5.1,5.1c0,2.8,2.3,5.1,5.1,5.1c1.6,0,3.1-0.8,4-1.9
		c0.5,1.1,1.5,1.8,2.5,1.9c0.1,0,0.2,0,0.3,0C18,15.1,19.1,14.3,19.6,12.8z M10,13.6c-2,0-3.6-1.6-3.6-3.6S8,6.4,10,6.4
		S13.6,8,13.6,10S12,13.6,10,13.6z"/>
</svg>