<svg class="icon-contact-bubble" xmlns="http://www.w3.org/2000/svg" x="0px" y="0px" viewBox="0 0 33.8 31.8" style="enable-background:new 0 0 33.8 31.8;" xml:space="preserve">
	<path style="fill:currentColor;" d="M0,31.4l4.1-10.8c0-0.1,0-0.1,0-0.2c-0.6-1.6-0.9-3.3-0.9-5.1C3.3,6.9,10.1,0,18.5,0c8.4,0,15.3,6.9,15.3,15.3
		c0,8.4-6.8,15.3-15.3,15.3c-2.7,0-5.2-0.7-7.5-2c-0.1,0-0.2-0.1-0.2,0L0.4,31.8C0.2,31.9-0.1,31.6,0,31.4z M11.5,25.3l0.2,0.1
		c1.7,1.1,3.6,1.9,5.6,2.1c7.3,0.8,13.5-5,13.5-12.1c0-6.7-5.5-12.2-12.2-12.2S6.4,8.6,6.4,15.3c0,1.6,0.3,3.1,0.9,4.6l0.1,0.3
		c0.1,0.2,0.1,0.3,0,0.5c-0.1,0.2-2.2,5.8-2.2,5.8c-0.1,0.2,0.1,0.5,0.4,0.4l5.6-1.7C11.3,25.2,11.4,25.2,11.5,25.3z"/>
	<g>
		<path style="fill:currentColor;" d="M12.6,16.4v-1.6c0-0.4,0.4-0.8,0.8-0.8H24c0.4,0,0.8,0.4,0.8,0.8v1.6c0,0.4-0.4,0.8-0.8,0.8H13.4
			C13,17.2,12.6,16.8,12.6,16.4z"/>
		<path style="fill:currentColor;" d="M17.9,9.5h1.6c0.4,0,0.8,0.4,0.8,0.8v10.5c0,0.4-0.4,0.8-0.8,0.8h-1.6c-0.4,0-0.8-0.4-0.8-0.8V10.3
			C17.1,9.9,17.4,9.5,17.9,9.5z"/>
	</g>
</svg>