<svg class="logo" xmlns="http://www.w3.org/2000/svg" x="0px" y="0px" viewBox="0 0 35.1 8.7" xml:space="preserve">
	<g>
		<path style="fill:currentColor;" d="M0,8.5V0.1h1.8v6.7H6v1.7H0z"/>
		<path style="fill:currentColor;" d="M11,8.7c-2.6,0-4.4-1.9-4.4-4.3v0C6.6,2,8.5,0,11,0c2.6,0,4.4,1.9,4.4,4.3v0C15.5,6.7,13.6,8.7,11,8.7z
			 M13.6,4.3c0-1.4-1.1-2.6-2.5-2.6c-1.5,0-2.5,1.2-2.5,2.6v0C8.5,5.8,9.6,7,11,7C12.5,7,13.6,5.8,13.6,4.3L13.6,4.3z"/>
		<path style="fill:currentColor;" d="M21.2,8.7c-2.6,0-4.4-1.8-4.4-4.3v0C16.8,2,18.6,0,21.2,0c1.5,0,2.4,0.4,3.3,1.2l-1.2,1.4
			c-0.6-0.5-1.2-0.9-2.2-0.9c-1.3,0-2.4,1.2-2.4,2.6v0c0,1.5,1.1,2.7,2.5,2.7c0.7,0,1.3-0.2,1.7-0.5V5.3h-1.9V3.7h3.6v3.6
			C23.9,8.1,22.7,8.7,21.2,8.7z"/>
		<path style="fill:currentColor;" d="M30.6,8.7c-2.6,0-4.4-1.9-4.4-4.3v0C26.2,2,28.1,0,30.7,0c2.6,0,4.4,1.9,4.4,4.3v0C35.1,6.7,33.2,8.7,30.6,8.7
			z M33.2,4.3c0-1.4-1.1-2.6-2.5-2.6c-1.5,0-2.5,1.2-2.5,2.6v0c0,1.4,1.1,2.6,2.5,2.6C32.1,7,33.2,5.8,33.2,4.3L33.2,4.3z"/>
	</g>
</svg>