<svg class="saturn-logo" xmlns="http://www.w3.org/2000/svg" x="0px" y="0px" viewBox="0 0 501.831 501.831">
	<g fill="currentColor">
		<path d="M499.459,147.962c-9.262-22.359-43.498-30.908-99.015-24.726c-19.926,2.22-41.725,6.263-64.713,11.927
			c-24.715-18.164-53.961-27.748-84.825-27.748c-70.871,0-131.202,52.036-141.841,121.639c-20.255,12.247-38.525,24.8-54.181,37.318
			c-43.627,34.882-61.792,65.138-52.53,87.498c6.754,16.306,26.538,25.222,58.8,26.5c2.636,0.104,5.344,0.156,8.127,0.156
			c26.57,0,59.742-4.755,96.725-13.866c24.098,17.672,53.629,27.756,84.899,27.756c71.702,0,131.291-52.861,141.841-121.659
			c36.221-21.898,65.296-44.275,84.165-64.795C498.596,184.379,506.181,164.193,499.459,147.962z M250.907,122.415
			c23.361,0,45.686,6.127,65.398,17.843c-31.179,8.66-64.109,20.064-97.239,33.787c-33.125,13.721-64.469,28.94-92.636,44.86
			C140.774,162.918,191.736,122.415,250.907,122.415z M250.907,379.415c-28.861,0-56.073-9.586-78.003-26.326
			c-0.38-0.362-0.793-0.684-1.238-0.959c-8.969-7.021-17.016-15.258-23.903-24.534c-0.19-0.292-0.393-0.572-0.619-0.831
			c-5.483-7.51-10.2-15.692-14.027-24.456c2.131-2.479,9.525-9.336,33.837-22.732c21.575-11.889,50.048-25.309,80.175-37.787
			c30.127-12.479,59.749-23.124,83.412-29.973c26.723-7.736,36.786-8.101,40.023-7.85c3.526,8.971,6.007,18.246,7.426,27.74
			c0.012,0.086,0.02,0.172,0.035,0.257c0.918,6.23,1.384,12.554,1.384,18.95C379.407,321.77,321.762,379.415,250.907,379.415z
			M465.871,197.807c-16.292,17.718-40.865,37.056-71.505,56.33c0.024-1.072,0.041-2.145,0.041-3.222
			c0-5.574-0.325-11.099-0.951-16.565c40.97-27.005,58.483-48.542,52.061-64.045c-3.946-9.527-15.261-14.186-34.589-14.243
			c-0.007,0-0.015,0-0.022,0c-4.132,0-7.487,3.343-7.5,7.478c-0.012,4.142,3.335,7.51,7.478,7.522
			c14.788,0.044,20.017,3.153,20.775,4.983c0.684,1.65-0.505,6.935-9.295,16.281c-7.17,7.623-18.028,16.456-31.712,25.831
			c-1.752-7.497-4.118-14.851-7.086-22.027c-0.019-0.047-0.031-0.096-0.051-0.143c-0.02-0.048-0.044-0.092-0.064-0.139
			c-0.109-0.263-0.212-0.529-0.323-0.792c-0.717-1.696-1.987-2.987-3.509-3.761c-6.658-4.241-20.63-2.822-46.514,4.22
			c-25.29,6.881-57.863,18.393-91.717,32.416c-33.854,14.023-65.027,28.915-87.775,41.932
			c-29.591,16.934-39.162,26.685-35.313,35.979c0.049,0.119,0.117,0.224,0.172,0.339c0.065,0.199,0.133,0.397,0.216,0.593
			c2.931,6.93,6.371,13.532,10.246,19.79c-43.922,8.218-57.529,2.236-58.778-0.779c-0.629-1.518,0.349-6.359,8.003-14.877
			c7.712-8.582,20.413-18.872,36.728-29.758c3.446-2.299,4.375-6.956,2.076-10.401c-2.299-3.445-6.956-4.375-10.401-2.076
			c-40.225,26.839-56.666,47.398-50.265,62.853c3.927,9.481,15.774,14.227,35.381,14.227c12.447,0,28.032-1.919,46.688-5.75
			c4.114,5.203,8.556,10.099,13.307,14.646c-35.062,7.98-65.933,11.683-89.924,10.732c-25.169-0.998-41.341-7.125-45.536-17.252
			c-6.164-14.879,11.795-41.063,48.039-70.042c15.865-12.685,34.523-25.424,55.289-37.84c0.21-0.113,0.414-0.236,0.612-0.368
			c30.961-18.466,66.584-36.207,104.653-51.976c138.308-57.29,248.449-64.005,260.794-34.201
			C489.771,163.772,482.764,179.435,465.871,197.807z"/>
		<path d="M377.687,159.184c-5.173,0.851-10.665,1.885-16.32,3.073c-4.053,0.852-6.649,4.829-5.797,8.882
			c0.743,3.534,3.859,5.959,7.332,5.959c0.511,0,1.03-0.053,1.55-0.162c5.441-1.144,10.713-2.137,15.67-2.952
			c4.087-0.672,6.855-4.53,6.183-8.618S381.773,158.514,377.687,159.184z"/>
		<path d="M328.909,170.22c-30.248,8.368-63.913,20.114-97.357,33.967c-34.96,14.481-68.291,30.677-96.388,46.837
			c-3.591,2.065-4.827,6.65-2.762,10.241c1.387,2.412,3.912,3.762,6.508,3.762c1.269,0,2.554-0.322,3.732-1
			c27.547-15.843,60.276-31.744,94.649-45.981c32.887-13.623,65.951-25.161,95.617-33.369c3.992-1.104,6.333-5.236,5.229-9.229
			C337.033,171.456,332.899,169.115,328.909,170.22z"/>
		<path d="M353.849,267.613c-4.034-0.95-8.071,1.544-9.023,5.575c-5.005,21.193-17.27,40.298-34.533,53.796
			c-3.263,2.551-3.84,7.265-1.289,10.528c1.479,1.892,3.685,2.881,5.914,2.881c1.615,0,3.243-0.52,4.614-1.592
			c19.938-15.589,34.105-37.666,39.892-62.164C360.376,272.606,357.88,268.566,353.849,267.613z"/>
		<path d="M288.078,339.998c-4.811,2.01-9.822,3.636-14.895,4.834c-4.031,0.952-6.527,4.992-5.575,9.023
			c0.815,3.452,3.894,5.777,7.293,5.777c0.571,0,1.151-0.065,1.73-0.202c5.868-1.386,11.664-3.268,17.229-5.592
			c3.822-1.597,5.626-5.989,4.029-9.812C296.293,340.206,291.9,338.403,288.078,339.998z"/>
	</g>
</svg>
