<svg class="icon-youtube" xmlns="http://www.w3.org/2000/svg" x="0px" y="0px" viewBox="0 0 20 14.1" style="enable-background:new 0 0 20 14.1;" xml:space="preserve">
	<g style="fill:currentColor;">
		<path d="M19.2,1.4c-0.3-0.5-0.6-1.1-1.7-1.2C16.7,0.1,14.7,0,12.7,0h-2.3H9.6H7.3c-2,0-4,0.1-4.8,0.2
			C1.4,0.3,1.1,0.9,0.8,1.4C0.1,2.6,0,4.7,0,6.1v0.1v1.7V8c0,1.4,0.1,3.5,0.8,4.7c0.3,0.5,0.6,1.1,1.7,1.2c0.8,0.1,2.8,0.2,4.8,0.2
			h2.3h0.8h2.3c2,0,4-0.1,4.8-0.2c1.1-0.1,1.4-0.7,1.7-1.2C19.9,11.5,20,9.4,20,8V7.9V6.2V6C20,4.7,19.9,2.6,19.2,1.4z M8,10.6V3.3
			l5.6,3.6L8,10.6z"/>
	</g>
</svg>
